<?xml version="1.0" encoding="utf-8"?>
<!-- Generator: Adobe Illustrator 16.0.3, SVG Export Plug-In . SVG Version: 6.00 Build 0)  -->
<!DOCTYPE svg PUBLIC "-//W3C//DTD SVG 1.1//EN" "http://www.w3.org/Graphics/SVG/1.1/DTD/svg11.dtd">
<svg version="1.1" id="Capa_1" xmlns="http://www.w3.org/2000/svg" xmlns:xlink="http://www.w3.org/1999/xlink" x="0px" y="0px"
	 width="850.39px" height="850.39px" viewBox="0 0 850.39 850.39" enable-background="new 0 0 850.39 850.39" xml:space="preserve">
<g>
	<path fill-rule="evenodd" clip-rule="evenodd" fill="#FFFFFF" d="M424.283,514.084c-83.448,0-166.897,0.033-250.35-0.058
		c-6.418-0.009-12.99-0.128-19.226-1.451c-14.744-3.137-21.897-13.515-21.813-27.856c0.088-14.491,8.18-24.258,22.39-27.717
		c5.645-1.373,11.768-1.032,17.672-1.036c167.984-0.046,335.963-0.036,503.943-0.036c1.613,0,3.229-0.021,4.842,0.003
		c22.504,0.357,36.72,12.304,36.011,30.274c-0.686,17.346-14.109,27.708-36.65,27.84c-27.457,0.162-54.919,0.037-82.377,0.037
		C540.581,514.084,482.435,514.084,424.283,514.084z"/>
	<path fill-rule="evenodd" clip-rule="evenodd" fill="#FFFFFF" d="M425.506,631.483c-27.465,0-54.934,0.162-82.398-0.048
		c-21.741-0.171-34.626-11.295-34.957-29.569c-0.318-17.28,13.604-28.959,35.474-29.025c54.396-0.157,108.789-0.171,163.185,0.012
		c21.486,0.073,35.246,12.129,34.767,29.609c-0.509,18.287-13.103,28.82-35.286,28.979
		C479.367,631.632,452.438,631.483,425.506,631.483z"/>
	<path fill-rule="evenodd" clip-rule="evenodd" fill="#FFFFFF" d="M426.126,336.371c26.906,0,53.819-0.158,80.725,0.057
		c21.571,0.167,34.733,11.618,34.658,29.562c-0.07,17.694-13.479,28.967-35.385,29.028c-53.817,0.149-107.636,0.131-161.457,0.007
		c-22.718-0.045-36.947-11.864-36.486-29.807c0.458-17.853,13.595-28.665,35.601-28.804
		C371.23,336.242,398.678,336.371,426.126,336.371z"/>
	<path fill-rule="evenodd" clip-rule="evenodd" fill="#FFFFFF" d="M249.001,218.993c28.464,0.019,56.929-0.21,85.393,0.116
		c13.292,0.155,23.637,5.83,29.295,18.648c4.64,10.521,2.449,20.068-4.166,28.683c-6.715,8.75-16.552,11.651-27.038,11.684
		c-55.318,0.153-110.639,0.322-165.958-0.052c-20.671-0.14-33.488-11.818-33.865-28.982c-0.396-18.044,12.228-29.63,34.167-29.999
		C194.211,218.624,221.609,218.973,249.001,218.993z"/>
	<path fill-rule="evenodd" clip-rule="evenodd" fill="#FFFFFF" d="M191.339,336.586c9.682-0.015,19.398-0.546,29.038,0.107
		c16.087,1.083,27.542,12.49,28.67,27.564c1.027,13.717-10.778,29.021-25.993,29.991c-21.417,1.365-43.053,1.407-64.47,0.055
		c-15.667-0.984-26.539-15.13-25.945-29.794c0.61-15.116,11.854-26.682,28.043-27.783
		C170.859,336.04,181.116,336.594,191.339,336.586z"/>
	<path fill-rule="evenodd" clip-rule="evenodd" fill="#FFFFFF" d="M189.357,631.237c-9.641,0-19.319,0.558-28.908-0.127
		c-15.951-1.143-26.845-12.482-27.788-27.862c-0.859-13.946,8.927-28.046,24.042-29.212c22.331-1.729,44.961-1.619,67.331-0.177
		c14.514,0.938,25.82,15.904,25.152,28.837c-0.774,15.09-12.029,27.136-27.714,28.33c-10.646,0.802-21.407,0.152-32.115,0.152
		C189.357,631.193,189.357,631.216,189.357,631.237z"/>
</g>
</svg>
