<?xml version="1.0" encoding="utf-8"?>
<!-- Generator: Adobe Illustrator 16.0.3, SVG Export Plug-In . SVG Version: 6.00 Build 0)  -->
<!DOCTYPE svg PUBLIC "-//W3C//DTD SVG 1.1//EN" "http://www.w3.org/Graphics/SVG/1.1/DTD/svg11.dtd">
<svg version="1.1" id="Capa_1" xmlns="http://www.w3.org/2000/svg" xmlns:xlink="http://www.w3.org/1999/xlink" x="0px" y="0px"
	 width="1275.59px" height="566.93px" viewBox="0 0 1275.59 566.93" enable-background="new 0 0 1275.59 566.93"
	 xml:space="preserve">
<g>
	<path fill="#F6F6F6" d="M32.696,349.648v-35.092h108.32c7.115,0,13.245-1.547,18.422-4.658c5.162-3.107,9.1-7.155,11.763-12.201
		c2.677-5.024,3.975-10.34,3.975-15.972c0-5.354-1.159-10.295-3.535-14.887c-2.39-4.583-5.999-8.272-10.867-11.088
		c-4.885-2.816-10.736-4.231-17.544-4.231h-45.73c-14.475,0-27.146-2.42-37.957-7.297c-10.795-4.906-19.213-12.071-25.285-21.524
		c-6.072-9.466-9.108-21.018-9.108-34.649c0-11.522,2.816-22.177,8.448-31.967c5.603-9.761,13.451-17.667,23.525-23.745
		c10.047-6.058,21.597-9.093,34.614-9.093h104.324v35.082H95.739c-9.181,0-16.44,2.816-21.75,8.412
		c-5.345,5.632-7.979,12.291-7.979,19.976c0,7.4,2.713,13.838,8.199,19.323c5.457,5.493,13.215,8.199,23.29,8.199h43.517
		c16.281,0,29.965,2.603,41.067,7.781c11.088,5.184,19.543,12.635,25.287,22.426c5.777,9.753,8.667,21.758,8.667,35.941
		c0,12.149-2.963,23.437-8.895,33.968c-5.919,10.516-14.117,19.038-24.634,25.533c-10.517,6.507-22.71,9.764-36.623,9.764H32.696z"
		/>
	<path fill="#F6F6F6" d="M379.396,349.648c-23.372,0-44.243-5.025-62.57-15.102c-18.347-10.045-32.867-23.6-43.53-40.618
		c-10.647-17.008-15.964-36.199-15.964-57.472c0-21.312,5.317-40.503,15.964-57.509c10.664-17.013,25.183-30.522,43.53-40.605
		c18.327-10.039,39.198-15.099,62.57-15.099h26.62v35.082h-27.947c-15.07,0-28.623,3.461-40.621,10.444
		c-11.975,6.922-21.449,16.324-28.386,28.161c-6.974,11.849-10.438,25.005-10.438,39.526c0,14.482,3.463,27.676,10.438,39.489
		c6.937,11.852,16.411,21.245,28.386,28.176c11.998,6.975,25.551,10.436,40.621,10.436h27.947v35.092H379.396z"/>
	<path fill="#F6F6F6" d="M451.292,349.648V187.616c0-20.131,5.705-35.875,17.087-47.287c11.41-11.374,27.163-17.086,47.278-17.086
		h46.611v35.082h-39.052c-9.781,0-17.416,2.816-22.872,8.412c-5.478,5.632-8.198,13.479-8.198,23.556v159.355H451.292z"/>
	<path fill="#F6F6F6" d="M600.012,349.648V123.244h41.302v226.405H600.012z"/>
	<path fill="#F6F6F6" d="M867.249,126.14c14.189,5.486,26.481,13.537,36.835,24.193c10.324,10.656,18.421,23.445,24.169,38.404
		c5.781,14.923,8.67,31.71,8.67,50.358c0,23.701-4.802,44.177-14.418,61.491c-9.636,17.298-22.719,30.695-39.299,40.173
		c-16.581,9.467-35.369,14.188-56.356,14.188c-11.551,0-22.571-1.906-33.083-5.74c-10.521-3.867-19.835-9.182-27.96-16.003
		c-8.134-6.79-14.755-14.777-19.772-23.95h-0.864V447.29h-40.849V237.761c0-25.153,5.09-46.677,15.306-64.555
		c10.23-17.915,24.076-31.614,41.515-41.074c17.454-9.468,37.137-14.198,59.026-14.198
		C837.321,117.934,853.043,120.676,867.249,126.14z M782.672,163.195c-11.374,6.828-20.416,16.436-27.089,28.865
		c-6.658,12.437-9.973,27.059-9.973,43.934c0,17.152,3.314,32.046,9.973,44.609c6.673,12.606,15.715,22.286,27.089,29.078
		c11.367,6.826,24.016,10.236,37.964,10.236c14.205,0,26.921-3.579,38.149-10.662c11.287-7.114,20.204-16.874,26.885-29.297
		c6.636-12.438,9.973-26.958,9.973-43.501c0-17.146-3.409-31.96-10.2-44.396c-6.819-12.43-15.928-22.038-27.31-28.865
		c-11.402-6.791-24.055-10.229-37.965-10.229C806.565,152.966,794.039,156.404,782.672,163.195z"/>
	<path fill="#F6F6F6" d="M954.236,158.326v-35.082h157.572v35.082H954.236z M1057.659,349.648c-20.123,0-35.875-5.788-47.278-17.316
		c-11.389-11.549-17.093-27.234-17.093-47.066V66.424h40.854v216.209c0,9.747,2.749,17.505,8.205,23.292
		c5.485,5.741,13.112,8.631,22.865,8.631h45.73v35.092H1057.659z"/>
	<rect x="1146.864" y="314.22" fill="#FFFFFF" width="103.577" height="35.429"/>
</g>
</svg>
